
<svg xmlns="http://www.w3.org/2000/svg" viewBox="0 0 87.04 115"><defs><style>.cls-1{fill:none;stroke:#000;stroke-miterlimit:10;stroke-width:3px;}</style></defs><title>LOGO</title><g id="Layer_2" data-name="Layer 2"><g id="Layer_1-2" data-name="Layer 1"><path d="M23.31,17.4h-4.7V28.3h-3.1V17.4H10.83V14.3H23.31Z"/><path d="M36.75,28.3V22.84h-7V28.3h-3.1v-14h3.1v5.46h7V14.3h3.1v14Z"/><path d="M56.79,28.3H44.39v-14h12.3v3.1h-9.2v2.36h9.1v3.08h-9.1V25.2h9.3Z"/><path d="M62.41,23.14c.5,1.6,1.42,2.46,2.82,2.46,1.74,0,2.7-1.16,2.7-3.3v-8H71v8c0,3.86-2,6.4-5.84,6.4a5.57,5.57,0,0,1-5.62-4.2Z"/><path d="M23.09,52.3l-1.26-3.2H15.37l-1.24,3.2h-3.4l5.4-14h5l5.4,14ZM16.55,46h4.1l-2-5.42Z"/><path d="M32.83,47.66V52.3h-3.1v-14h7.52c3.36,0,5.08,2.22,5.08,4.66s-1.7,4.7-5.06,4.7Zm4.48-3.1c1.2,0,1.92-.68,1.92-1.56a1.7,1.7,0,0,0-1.92-1.6H32.83v3.16Z"/><path d="M55.73,52.3l-1.26-3.2H48l-1.24,3.2h-3.4l5.4-14h5l5.4,14ZM49.19,46h4.1l-2-5.42Z"/><path d="M71.21,52.3,65.47,41.14V52.3h-3.1v-14h5l5.8,11.28V38.3h3.1v14Z"/><path d="M24.43,76.3H12v-14h12.3v3.1h-9.2v2.36h9.1v3.08h-9.1V73.2h9.3Z"/><path d="M34.69,76.7c-4.92,0-6.92-3-6.92-3l2.34-2a6.64,6.64,0,0,0,4.6,1.86c1.94,0,3.16-.42,3.16-1.38s-1-1.16-2.2-1.26l-2.4-.2c-3-.26-5.1-1.64-5.1-4.32s2.4-4.54,5.9-4.54a7.76,7.76,0,0,1,6.4,2.9l-2.4,1.88a5.07,5.07,0,0,0-4-1.68c-1.88,0-2.76.52-2.76,1.36s.68,1.12,2,1.22l2.4.2c3.12.26,5.4,1.48,5.4,4.28S38.59,76.7,34.69,76.7Z"/><path d="M57.31,76.3H44.91v-14h12.3v3.1H48v2.36h9.1v3.08H48V73.2h9.3Z"/><path d="M71.65,76.3V70.84h-7V76.3h-3.1v-14h3.1v5.46h7V62.3h3.1v14Z"/><path d="M11.33,93.3a7.19,7.19,0,0,1,7.44-7.4,7.4,7.4,0,1,1,0,14.8A7.13,7.13,0,0,1,11.33,93.3Zm11.78,0A4.15,4.15,0,0,0,18.77,89a4.21,4.21,0,0,0-4.34,4.3,4.15,4.15,0,0,0,4.34,4.3A4.21,4.21,0,0,0,23.11,93.3Z"/><path d="M42.23,86.3v8.1A6,6,0,0,1,36,100.7a6,6,0,0,1-6.24-6.3V86.3h3.1v8a3.14,3.14,0,1,0,6.28,0v-8Z"/><path d="M52.49,100.7c-4.92,0-6.92-3-6.92-3l2.34-2a6.64,6.64,0,0,0,4.6,1.86c1.94,0,3.16-.42,3.16-1.38s-1-1.16-2.2-1.26l-2.4-.2c-3-.26-5.1-1.64-5.1-4.32s2.4-4.54,5.9-4.54a7.76,7.76,0,0,1,6.4,2.9l-2.4,1.88a5.07,5.07,0,0,0-4-1.68c-1.88,0-2.76.52-2.76,1.36s.68,1.12,2,1.22l2.4.2c3.12.26,5.4,1.48,5.4,4.28S56.39,100.7,52.49,100.7Z"/><path d="M75.11,100.3H62.71v-14H75v3.1h-9.2v2.36h9.1v3.08h-9.1V97.2h9.3Z"/><rect class="cls-1" x="1.5" y="1.5" width="84.04" height="112"/></g></g></svg>